<svg width="35" height="33" viewBox="0 0 35 33" fill="none" xmlns="http://www.w3.org/2000/svg">
<path d="M12.9258 19.1874C13.5206 19.1874 14.0029 18.7355 14.0029 18.1782C14.0029 17.6208 13.5206 17.1689 12.9258 17.1689C12.3309 17.1689 11.8486 17.6208 11.8486 18.1782C11.8486 18.7355 12.3309 19.1874 12.9258 19.1874Z" fill="#00BFFF"/>
<path d="M21.5425 19.1874C22.1373 19.1874 22.6196 18.7355 22.6196 18.1782C22.6196 17.6208 22.1373 17.1689 21.5425 17.1689C20.9476 17.1689 20.4653 17.6208 20.4653 18.1782C20.4653 18.7355 20.9476 19.1874 21.5425 19.1874Z" fill="#00BFFF"/>
<path d="M10.0176 10.098C12.3526 9.41312 14.7874 9.07302 17.2343 9.08996C19.6813 9.07302 22.1161 9.41312 24.4511 10.098" stroke="#00BFFF" stroke-linecap="round" stroke-linejoin="round"/>
<path d="M24.4511 22.2188C22.1161 22.9036 19.6813 23.2437 17.2343 23.2268C14.7874 23.2437 12.3526 22.9036 10.0176 22.2188" stroke="#00BFFF" stroke-linecap="round" stroke-linejoin="round"/>
<path d="M20.8692 22.989L22.4984 26.0188C22.6032 26.2254 22.7815 26.3913 23.0026 26.4881C23.2238 26.5848 23.4739 26.6064 23.7102 26.549C27.0089 25.7915 29.8632 24.4786 31.9367 22.787C32.093 22.6577 32.2066 22.489 32.2638 22.3011C32.3211 22.1132 32.3197 21.9138 32.2599 21.7265L27.6955 7.43588C27.6511 7.28963 27.5707 7.15519 27.4608 7.04338C27.3509 6.93156 27.2145 6.84547 27.0627 6.79204C25.7732 6.296 24.4396 5.90735 23.0773 5.63061C22.8156 5.57685 22.5418 5.61536 22.3084 5.73876C22.0749 5.86217 21.8981 6.06185 21.8117 6.2997L20.748 9.31689" stroke="#00BFFF" stroke-linecap="round" stroke-linejoin="round"/>
<path d="M13.5987 22.989L11.9695 26.0188C11.8647 26.2254 11.6864 26.3913 11.4653 26.4881C11.2441 26.5848 10.994 26.6064 10.7578 26.549C7.45905 25.7915 4.60466 24.4786 2.53118 22.787C2.37486 22.6577 2.26134 22.489 2.20407 22.3011C2.1468 22.1132 2.14818 21.9138 2.20804 21.7265L6.77238 7.43588C6.8168 7.28963 6.89719 7.15519 7.0071 7.04338C7.117 6.93156 7.25335 6.84547 7.40519 6.79204C8.69473 6.296 10.0283 5.90735 11.3906 5.63061C11.6523 5.57685 11.9261 5.61536 12.1595 5.73876C12.393 5.86217 12.5698 6.06185 12.6562 6.2997L13.7199 9.31689" stroke="#00BFFF" stroke-linecap="round" stroke-linejoin="round"/>
</svg>
