<svg width="18" height="31" viewBox="0 0 18 31" fill="none" xmlns="http://www.w3.org/2000/svg">
<path d="M0.937094 10.7694L8.09203 7.58944C8.40703 7.45444 8.76707 7.45444 9.06707 7.58944L16.2221 10.7694C16.8521 11.0544 17.437 10.2894 17.002 9.74944L9.50204 0.584438C8.99203 -0.0455615 8.15205 -0.0455615 7.64205 0.584438L0.14205 9.74944C-0.27795 10.2894 0.307094 11.0544 0.937094 10.7694Z" fill="white"/>
<path d="M0.937259 19.4694L8.10721 22.6494C8.42221 22.7844 8.78225 22.7844 9.08225 22.6494L16.2522 19.4694C16.8822 19.1844 17.4672 19.9494 17.0322 20.4894L9.53223 29.6544C9.02223 30.2844 8.18224 30.2844 7.67224 29.6544L0.172245 20.4894C-0.277755 19.9494 0.292259 19.1844 0.937259 19.4694Z" fill="white"/>
<path d="M8.25725 11.3544L2.06225 14.4444C1.50725 14.7144 1.50725 15.5094 2.06225 15.7794L8.25725 18.8694C8.46725 18.9744 8.72218 18.9744 8.93218 18.8694L15.1272 15.7794C15.6822 15.5094 15.6822 14.7144 15.1272 14.4444L8.93218 11.3544C8.70718 11.2494 8.46725 11.2494 8.25725 11.3544Z" fill="white"/>
</svg>
