<svg width="35" height="33" viewBox="0 0 35 33" fill="none" xmlns="http://www.w3.org/2000/svg">
<path d="M17.6386 21.2088C20.613 21.2088 23.0242 18.9479 23.0242 16.1591C23.0242 13.3702 20.613 11.1094 17.6386 11.1094C14.6642 11.1094 12.2529 13.3702 12.2529 16.1591C12.2529 18.9479 14.6642 21.2088 17.6386 21.2088Z" stroke="#00BFFF" stroke-linecap="round" stroke-linejoin="round"/>
<path d="M23.5626 4.54492H11.7142C8.14495 4.54492 5.25146 7.25792 5.25146 10.6046V21.7139C5.25146 25.0606 8.14495 27.7735 11.7142 27.7735H23.5626C27.1319 27.7735 30.0254 25.0606 30.0254 21.7139V10.6046C30.0254 7.25792 27.1319 4.54492 23.5626 4.54492Z" stroke="#00BFFF" stroke-linecap="round" stroke-linejoin="round"/>
<path d="M24.6401 10.6024C25.235 10.6024 25.7172 10.1506 25.7172 9.59319C25.7172 9.03582 25.235 8.58398 24.6401 8.58398C24.0452 8.58398 23.563 9.03582 23.563 9.59319C23.563 10.1506 24.0452 10.6024 24.6401 10.6024Z" fill="#00BFFF"/>
</svg>
