<svg width="128" height="20" viewBox="0 0 128 20" fill="none" xmlns="http://www.w3.org/2000/svg">
<path d="M0.96875 0.96875H3.70312L12.4531 15.7344V0.96875H14.9688V19.6719H12.2344L3.48438 4.90625V19.6719H0.96875V0.96875ZM19.125 0.96875H31.7031V3.04688H21.6406V9.17188H29.5156V11.25H21.6406V19.6719H19.125V0.96875ZM33.125 0.96875H48.1094V3.04688H41.875V19.6719H39.3594V3.04688H33.125V0.96875ZM59.375 0.96875H62.1094L70.8594 15.7344V0.96875H73.375V19.6719H70.6406L61.8906 4.90625V19.6719H59.375V0.96875ZM76.6562 13.5469C76.6562 11.5781 77.276 9.97396 78.5156 8.73438C79.5365 7.71354 80.849 7.20312 82.4531 7.20312C83.9844 7.20312 85.2969 7.75 86.3906 8.84375C87.4115 9.86458 87.9219 11.4323 87.9219 13.5469H79.0625C79.0625 15.0781 79.4271 16.2083 80.1562 16.9375C80.8125 17.5938 81.651 17.9219 82.6719 17.9219C83.6927 17.9219 84.4219 17.7031 84.8594 17.2656C85.3698 16.7552 85.625 16.1719 85.625 15.5156H88.0312C87.7396 16.8281 87.2656 17.8125 86.6094 18.4688C85.6615 19.4167 84.349 19.8906 82.6719 19.8906C80.9219 19.8906 79.5 19.3438 78.4062 18.25C77.2396 17.0833 76.6562 15.5156 76.6562 13.5469ZM82.3438 9.0625C81.4688 9.0625 80.7396 9.35417 80.1562 9.9375C79.6458 10.4479 79.3177 11.0677 79.1719 11.7969H85.4062C85.4062 11.0677 85.1146 10.4115 84.5312 9.82812C84.0208 9.31771 83.2917 9.0625 82.3438 9.0625ZM90.3281 7.42188H92.8438L95.7969 11.7969L98.75 7.42188H101.266L97.1094 13.4375L101.594 19.6719H99.0781L95.7969 15.0781L92.5156 19.6719H90L94.4844 13.4375L90.3281 7.42188ZM103.891 7.42188H106.078V15.625C106.078 16.5 106.297 17.1562 106.734 17.5938C107.099 17.9583 107.609 18.1406 108.266 18.1406C109.214 18.1406 110.052 17.776 110.781 17.0469C111.875 15.9531 112.422 14.8229 112.422 13.6562V7.42188H114.609V19.6719H112.422V17.4844C111.255 19.0885 109.833 19.8906 108.156 19.8906C106.625 19.8906 105.531 19.5625 104.875 18.9062C104.219 18.25 103.891 17.4115 103.891 16.3906V7.42188ZM117.891 10.9219C117.891 9.97396 118.219 9.17188 118.875 8.51562C119.75 7.64062 120.99 7.20312 122.594 7.20312C124.344 7.20312 125.62 7.60417 126.422 8.40625C127.151 9.13542 127.516 9.9375 127.516 10.8125H125.328C125.255 10.3021 125.109 9.9375 124.891 9.71875C124.453 9.28125 123.651 9.0625 122.484 9.0625C121.755 9.0625 121.172 9.28125 120.734 9.71875C120.37 10.0833 120.188 10.4844 120.188 10.9219C120.188 11.2135 120.297 11.4688 120.516 11.6875C120.807 11.9792 121.719 12.3073 123.25 12.6719C124.198 12.8906 125 13.1094 125.656 13.3281C126.24 13.5469 126.677 13.8021 126.969 14.0938C127.552 14.6771 127.844 15.3698 127.844 16.1719C127.844 17.0469 127.479 17.849 126.75 18.5781C125.875 19.4531 124.526 19.8906 122.703 19.8906C120.88 19.8906 119.531 19.4531 118.656 18.5781C117.927 17.849 117.562 16.9375 117.562 15.8438H119.75C119.823 16.5 120.005 16.974 120.297 17.2656C120.807 17.776 121.573 18.0312 122.594 18.0312C123.833 18.0312 124.672 17.8125 125.109 17.375C125.401 17.0833 125.547 16.7188 125.547 16.2812C125.547 15.9896 125.365 15.6615 125 15.2969C124.708 15.0052 124.234 14.7865 123.578 14.6406C122.266 14.349 121.281 14.0938 120.625 13.875C119.823 13.6562 119.24 13.3646 118.875 13C118.219 12.3438 117.891 11.651 117.891 10.9219Z" fill="#00BFFF"/>
</svg>
