<svg width="36" height="33" viewBox="0 0 36 33" fill="none" xmlns="http://www.w3.org/2000/svg">
<path d="M18.1702 11.1088C18.1702 8.33142 20.6611 6.02118 23.6232 6.05905C24.6605 6.07028 25.6723 6.36218 26.537 6.89967C27.4016 7.43716 28.0823 8.19735 28.4972 9.08887H33.25L28.9011 13.1665C28.6205 17.2625 26.6867 21.1046 23.4929 23.9116C20.299 26.7186 16.085 28.2798 11.7075 28.2777C7.39895 28.2777 6.32182 26.7628 6.32182 26.7628C6.32182 26.7628 10.6303 25.2479 12.7846 22.2181C12.7846 22.2181 4.16756 18.1783 6.32182 7.06899C6.32182 7.06899 11.7075 12.1187 18.1702 13.1286V11.1088Z" stroke="#00BFFF" stroke-linecap="round" stroke-linejoin="round"/>
</svg>
